<?xml version="1.0" encoding="utf-8" standalone="no"?>
<!DOCTYPE svg PUBLIC "-//W3C//DTD SVG 1.1//EN"
  "http://www.w3.org/Graphics/SVG/1.1/DTD/svg11.dtd">
<svg xmlns:xlink="http://www.w3.org/1999/xlink" width="864pt" height="352.8pt" viewBox="0 0 864 352.8" xmlns="http://www.w3.org/2000/svg" version="1.1">
 <metadata>
  <rdf:RDF xmlns:dc="http://purl.org/dc/elements/1.1/" xmlns:cc="http://creativecommons.org/ns#" xmlns:rdf="http://www.w3.org/1999/02/22-rdf-syntax-ns#">
   <cc:Work>
    <dc:type rdf:resource="http://purl.org/dc/dcmitype/StillImage"/>
    <dc:date>2026-09-07T22:09:35.688614</dc:date>
    <dc:format>image/svg+xml</dc:format>
    <dc:creator>
     <cc:Agent>
      <dc:title>Matplotlib v3.10.8, https://matplotlib.org/</dc:title>
     </cc:Agent>
    </dc:creator>
   </cc:Work>
  </rdf:RDF>
 </metadata>
 <defs>
  <style type="text/css">*{stroke-linejoin: round; stroke-linecap: butt}</style>
 </defs>
 <g id="figure_1">
  <g id="patch_1">
   <path d="M 0 352.8 
L 864 352.8 
L 864 0 
L 0 0 
z
" style="fill: #ffffff"/>
  </g>
  <g id="axes_1">
   <g id="table_1">
    <g id="patch_2">
     <path d="M 43.2 118.51434 
L 165.126175 118.51434 
L 165.126175 92.39832 
L 43.2 92.39832 
z
" style="fill: #eaf1f7; stroke: #d0d8df; stroke-linejoin: miter"/>
    </g>
    <g id="text_1">
     <text style="font-size: 11px; font-family: 'DejaVu Sans'; text-anchor: middle" x="104.163088" y="108.491643" transform="rotate(-0 104.163088 108.491643)">Fine ticks</text>
    </g>
    <g id="patch_3">
     <path d="M 165.126175 118.51434 
L 287.05235 118.51434 
L 287.05235 92.39832 
L 165.126175 92.39832 
z
" style="fill: #eaf1f7; stroke: #d0d8df; stroke-linejoin: miter"/>
    </g>
    <g id="text_2">
     <text style="font-size: 11px; font-family: 'DejaVu Sans'; text-anchor: middle" x="226.089263" y="108.491643" transform="rotate(-0 226.089263 108.491643)">Code survives</text>
    </g>
    <g id="patch_4">
     <path d="M 287.05235 118.51434 
L 408.978525 118.51434 
L 408.978525 92.39832 
L 287.05235 92.39832 
z
" style="fill: #eaf1f7; stroke: #d0d8df; stroke-linejoin: miter"/>
    </g>
    <g id="text_3">
     <text style="font-size: 11px; font-family: 'DejaVu Sans'; text-anchor: middle" x="348.015438" y="108.491643" transform="rotate(-0 348.015438 108.491643)">Elementary rule</text>
    </g>
    <g id="patch_5">
     <path d="M 43.2 144.63036 
L 165.126175 144.63036 
L 165.126175 118.51434 
L 43.2 118.51434 
z
" style="fill: #ffffff; stroke: #d0d8df; stroke-linejoin: miter"/>
    </g>
    <g id="text_4">
     <text style="font-size: 11px; font-family: 'DejaVu Sans'; text-anchor: middle" x="104.163088" y="134.607663" transform="rotate(-0 104.163088 134.607663)">1</text>
    </g>
    <g id="patch_6">
     <path d="M 165.126175 144.63036 
L 287.05235 144.63036 
L 287.05235 118.51434 
L 165.126175 118.51434 
z
" style="fill: #ffffff; stroke: #d0d8df; stroke-linejoin: miter"/>
    </g>
    <g id="text_5">
     <text style="font-size: 11px; font-family: 'DejaVu Sans'; text-anchor: middle" x="226.089263" y="134.607663" transform="rotate(-0 226.089263 134.607663)">18</text>
    </g>
    <g id="patch_7">
     <path d="M 287.05235 144.63036 
L 408.978525 144.63036 
L 408.978525 118.51434 
L 287.05235 118.51434 
z
" style="fill: #ffffff; stroke: #d0d8df; stroke-linejoin: miter"/>
    </g>
    <g id="text_6">
     <text style="font-size: 11px; font-family: 'DejaVu Sans'; text-anchor: middle" x="348.015438" y="134.607663" transform="rotate(-0 348.015438 134.607663)">18</text>
    </g>
    <g id="patch_8">
     <path d="M 43.2 170.74638 
L 165.126175 170.74638 
L 165.126175 144.63036 
L 43.2 144.63036 
z
" style="fill: #ffffff; stroke: #d0d8df; stroke-linejoin: miter"/>
    </g>
    <g id="text_7">
     <text style="font-size: 11px; font-family: 'DejaVu Sans'; text-anchor: middle" x="104.163088" y="160.723683" transform="rotate(-0 104.163088 160.723683)">2</text>
    </g>
    <g id="patch_9">
     <path d="M 165.126175 170.74638 
L 287.05235 170.74638 
L 287.05235 144.63036 
L 165.126175 144.63036 
z
" style="fill: #ffffff; stroke: #d0d8df; stroke-linejoin: miter"/>
    </g>
    <g id="text_8">
     <text style="font-size: 11px; font-family: 'DejaVu Sans'; text-anchor: middle" x="226.089263" y="160.723683" transform="rotate(-0 226.089263 160.723683)">50</text>
    </g>
    <g id="patch_10">
     <path d="M 287.05235 170.74638 
L 408.978525 170.74638 
L 408.978525 144.63036 
L 287.05235 144.63036 
z
" style="fill: #ffffff; stroke: #d0d8df; stroke-linejoin: miter"/>
    </g>
    <g id="text_9">
     <text style="font-size: 11px; font-family: 'DejaVu Sans'; text-anchor: middle" x="348.015438" y="160.723683" transform="rotate(-0 348.015438 160.723683)">0</text>
    </g>
    <g id="patch_11">
     <path d="M 43.2 196.8624 
L 165.126175 196.8624 
L 165.126175 170.74638 
L 43.2 170.74638 
z
" style="fill: #ffffff; stroke: #d0d8df; stroke-linejoin: miter"/>
    </g>
    <g id="text_10">
     <text style="font-size: 11px; font-family: 'DejaVu Sans'; text-anchor: middle" x="104.163088" y="186.839702" transform="rotate(-0 104.163088 186.839702)">3</text>
    </g>
    <g id="patch_12">
     <path d="M 165.126175 196.8624 
L 287.05235 196.8624 
L 287.05235 170.74638 
L 165.126175 170.74638 
z
" style="fill: #ffffff; stroke: #d0d8df; stroke-linejoin: miter"/>
    </g>
    <g id="text_11">
     <text style="font-size: 11px; font-family: 'DejaVu Sans'; text-anchor: middle" x="226.089263" y="186.839702" transform="rotate(-0 226.089263 186.839702)">54</text>
    </g>
    <g id="patch_13">
     <path d="M 287.05235 196.8624 
L 408.978525 196.8624 
L 408.978525 170.74638 
L 287.05235 170.74638 
z
" style="fill: #ffffff; stroke: #d0d8df; stroke-linejoin: miter"/>
    </g>
    <g id="text_12">
     <text style="font-size: 11px; font-family: 'DejaVu Sans'; text-anchor: middle" x="348.015438" y="186.839702" transform="rotate(-0 348.015438 186.839702)">0</text>
    </g>
   </g>
   <g id="text_13">
    <text style="font-size: 9px; font-family: 'DejaVu Sans'; text-anchor: start" x="43.2" y="230.202" transform="rotate(-0 43.2 230.202)">5,334 candidate codes per cadence; symmetry copies included.</text>
   </g>
   <g id="text_14">
    <text style="font-size: 10px; font-family: 'DejaVu Sans'" transform="translate(43.2 245.675867)">All-height graph: only 23 and 232 at one tick;</text>
    <text style="font-size: 10px; font-family: 'DejaVu Sans'" transform="translate(43.2 256.87368)">no elementary target at two or three ticks.</text>
   </g>
   <g id="text_15">
    <text style="font-size: 11px; font-family: 'DejaVu Sans'; text-anchor: middle" x="226.089263" y="48.504" transform="rotate(-0 226.089263 48.504)">Exact census: every ordered column pair, heights 1–6</text>
   </g>
  </g>
  <g id="axes_2">
   <g id="patch_14">
    <path d="M 528.651717 285.768 
L 846.72 285.768 
L 846.72 63.504 
L 528.651717 63.504 
z
" style="fill: #ffffff"/>
   </g>
   <g id="matplotlib.axis_1">
    <g id="xtick_1">
     <g id="line2d_1">
      <path d="M 543.109366 285.768 
L 543.109366 63.504 
" clip-path="url(#p16b4d98bfe)" style="fill: none; stroke: #b0b0b0; stroke-opacity: 0.2; stroke-width: 0.8; stroke-linecap: square"/>
     </g>
     <g id="line2d_2">
      <defs>
       <path id="m4e3b936e72" d="M 0 0 
L 0 3.5 
" style="stroke: #000000; stroke-width: 0.8"/>
      </defs>
      <g>
       <use xlink:href="#m4e3b936e72" x="543.109366" y="285.768" style="stroke: #000000; stroke-width: 0.8"/>
      </g>
     </g>
     <g id="text_16">
      <text style="font-size: 10px; font-family: 'DejaVu Sans'; text-anchor: middle" x="543.109366" y="300.366437" transform="rotate(-0 543.109366 300.366437)">0</text>
     </g>
    </g>
    <g id="xtick_2">
     <g id="line2d_3">
      <path d="M 615.397612 285.768 
L 615.397612 63.504 
" clip-path="url(#p16b4d98bfe)" style="fill: none; stroke: #b0b0b0; stroke-opacity: 0.2; stroke-width: 0.8; stroke-linecap: square"/>
     </g>
     <g id="line2d_4">
      <g>
       <use xlink:href="#m4e3b936e72" x="615.397612" y="285.768" style="stroke: #000000; stroke-width: 0.8"/>
      </g>
     </g>
     <g id="text_17">
      <text style="font-size: 10px; font-family: 'DejaVu Sans'; text-anchor: middle" x="615.397612" y="300.366437" transform="rotate(-0 615.397612 300.366437)">1</text>
     </g>
    </g>
    <g id="xtick_3">
     <g id="line2d_5">
      <path d="M 687.685858 285.768 
L 687.685858 63.504 
" clip-path="url(#p16b4d98bfe)" style="fill: none; stroke: #b0b0b0; stroke-opacity: 0.2; stroke-width: 0.8; stroke-linecap: square"/>
     </g>
     <g id="line2d_6">
      <g>
       <use xlink:href="#m4e3b936e72" x="687.685858" y="285.768" style="stroke: #000000; stroke-width: 0.8"/>
      </g>
     </g>
     <g id="text_18">
      <text style="font-size: 10px; font-family: 'DejaVu Sans'; text-anchor: middle" x="687.685858" y="300.366437" transform="rotate(-0 687.685858 300.366437)">2</text>
     </g>
    </g>
    <g id="xtick_4">
     <g id="line2d_7">
      <path d="M 759.974105 285.768 
L 759.974105 63.504 
" clip-path="url(#p16b4d98bfe)" style="fill: none; stroke: #b0b0b0; stroke-opacity: 0.2; stroke-width: 0.8; stroke-linecap: square"/>
     </g>
     <g id="line2d_8">
      <g>
       <use xlink:href="#m4e3b936e72" x="759.974105" y="285.768" style="stroke: #000000; stroke-width: 0.8"/>
      </g>
     </g>
     <g id="text_19">
      <text style="font-size: 10px; font-family: 'DejaVu Sans'; text-anchor: middle" x="759.974105" y="300.366437" transform="rotate(-0 759.974105 300.366437)">3</text>
     </g>
    </g>
    <g id="xtick_5">
     <g id="line2d_9">
      <path d="M 832.262351 285.768 
L 832.262351 63.504 
" clip-path="url(#p16b4d98bfe)" style="fill: none; stroke: #b0b0b0; stroke-opacity: 0.2; stroke-width: 0.8; stroke-linecap: square"/>
     </g>
     <g id="line2d_10">
      <g>
       <use xlink:href="#m4e3b936e72" x="832.262351" y="285.768" style="stroke: #000000; stroke-width: 0.8"/>
      </g>
     </g>
     <g id="text_20">
      <text style="font-size: 10px; font-family: 'DejaVu Sans'; text-anchor: middle" x="832.262351" y="300.366437" transform="rotate(-0 832.262351 300.366437)">4</text>
     </g>
    </g>
    <g id="text_21">
     <text style="font-size: 10px; font-family: 'DejaVu Sans'; text-anchor: middle" x="687.685858" y="314.044562" transform="rotate(-0 687.685858 314.044562)">Coarse ticks after damage</text>
    </g>
   </g>
   <g id="matplotlib.axis_2">
    <g id="ytick_1">
     <g id="line2d_11">
      <path d="M 528.651717 273.75373 
L 846.72 273.75373 
" clip-path="url(#p16b4d98bfe)" style="fill: none; stroke: #b0b0b0; stroke-opacity: 0.2; stroke-width: 0.8; stroke-linecap: square"/>
     </g>
     <g id="line2d_12">
      <defs>
       <path id="m6df530d8ad" d="M 0 0 
L -3.5 0 
" style="stroke: #000000; stroke-width: 0.8"/>
      </defs>
      <g>
       <use xlink:href="#m6df530d8ad" x="528.651717" y="273.75373" style="stroke: #000000; stroke-width: 0.8"/>
      </g>
     </g>
     <g id="text_22">
      <text style="font-size: 10px; font-family: 'DejaVu Sans'; text-anchor: end" x="521.651717" y="277.552948" transform="rotate(-0 521.651717 277.552948)">0</text>
     </g>
    </g>
    <g id="ytick_2">
     <g id="line2d_13">
      <path d="M 528.651717 243.718054 
L 846.72 243.718054 
" clip-path="url(#p16b4d98bfe)" style="fill: none; stroke: #b0b0b0; stroke-opacity: 0.2; stroke-width: 0.8; stroke-linecap: square"/>
     </g>
     <g id="line2d_14">
      <g>
       <use xlink:href="#m6df530d8ad" x="528.651717" y="243.718054" style="stroke: #000000; stroke-width: 0.8"/>
      </g>
     </g>
     <g id="text_23">
      <text style="font-size: 10px; font-family: 'DejaVu Sans'; text-anchor: end" x="521.651717" y="247.517273" transform="rotate(-0 521.651717 247.517273)">5</text>
     </g>
    </g>
    <g id="ytick_3">
     <g id="line2d_15">
      <path d="M 528.651717 213.682378 
L 846.72 213.682378 
" clip-path="url(#p16b4d98bfe)" style="fill: none; stroke: #b0b0b0; stroke-opacity: 0.2; stroke-width: 0.8; stroke-linecap: square"/>
     </g>
     <g id="line2d_16">
      <g>
       <use xlink:href="#m6df530d8ad" x="528.651717" y="213.682378" style="stroke: #000000; stroke-width: 0.8"/>
      </g>
     </g>
     <g id="text_24">
      <text style="font-size: 10px; font-family: 'DejaVu Sans'; text-anchor: end" x="521.651717" y="217.481597" transform="rotate(-0 521.651717 217.481597)">10</text>
     </g>
    </g>
    <g id="ytick_4">
     <g id="line2d_17">
      <path d="M 528.651717 183.646703 
L 846.72 183.646703 
" clip-path="url(#p16b4d98bfe)" style="fill: none; stroke: #b0b0b0; stroke-opacity: 0.2; stroke-width: 0.8; stroke-linecap: square"/>
     </g>
     <g id="line2d_18">
      <g>
       <use xlink:href="#m6df530d8ad" x="528.651717" y="183.646703" style="stroke: #000000; stroke-width: 0.8"/>
      </g>
     </g>
     <g id="text_25">
      <text style="font-size: 10px; font-family: 'DejaVu Sans'; text-anchor: end" x="521.651717" y="187.445921" transform="rotate(-0 521.651717 187.445921)">15</text>
     </g>
    </g>
    <g id="ytick_5">
     <g id="line2d_19">
      <path d="M 528.651717 153.611027 
L 846.72 153.611027 
" clip-path="url(#p16b4d98bfe)" style="fill: none; stroke: #b0b0b0; stroke-opacity: 0.2; stroke-width: 0.8; stroke-linecap: square"/>
     </g>
     <g id="line2d_20">
      <g>
       <use xlink:href="#m6df530d8ad" x="528.651717" y="153.611027" style="stroke: #000000; stroke-width: 0.8"/>
      </g>
     </g>
     <g id="text_26">
      <text style="font-size: 10px; font-family: 'DejaVu Sans'; text-anchor: end" x="521.651717" y="157.410246" transform="rotate(-0 521.651717 157.410246)">20</text>
     </g>
    </g>
    <g id="ytick_6">
     <g id="line2d_21">
      <path d="M 528.651717 123.575351 
L 846.72 123.575351 
" clip-path="url(#p16b4d98bfe)" style="fill: none; stroke: #b0b0b0; stroke-opacity: 0.2; stroke-width: 0.8; stroke-linecap: square"/>
     </g>
     <g id="line2d_22">
      <g>
       <use xlink:href="#m6df530d8ad" x="528.651717" y="123.575351" style="stroke: #000000; stroke-width: 0.8"/>
      </g>
     </g>
     <g id="text_27">
      <text style="font-size: 10px; font-family: 'DejaVu Sans'; text-anchor: end" x="521.651717" y="127.37457" transform="rotate(-0 521.651717 127.37457)">25</text>
     </g>
    </g>
    <g id="ytick_7">
     <g id="line2d_23">
      <path d="M 528.651717 93.539676 
L 846.72 93.539676 
" clip-path="url(#p16b4d98bfe)" style="fill: none; stroke: #b0b0b0; stroke-opacity: 0.2; stroke-width: 0.8; stroke-linecap: square"/>
     </g>
     <g id="line2d_24">
      <g>
       <use xlink:href="#m6df530d8ad" x="528.651717" y="93.539676" style="stroke: #000000; stroke-width: 0.8"/>
      </g>
     </g>
     <g id="text_28">
      <text style="font-size: 10px; font-family: 'DejaVu Sans'; text-anchor: end" x="521.651717" y="97.338894" transform="rotate(-0 521.651717 97.338894)">30</text>
     </g>
    </g>
    <g id="ytick_8">
     <g id="line2d_25">
      <path d="M 528.651717 63.504 
L 846.72 63.504 
" clip-path="url(#p16b4d98bfe)" style="fill: none; stroke: #b0b0b0; stroke-opacity: 0.2; stroke-width: 0.8; stroke-linecap: square"/>
     </g>
     <g id="line2d_26">
      <g>
       <use xlink:href="#m6df530d8ad" x="528.651717" y="63.504" style="stroke: #000000; stroke-width: 0.8"/>
      </g>
     </g>
     <g id="text_29">
      <text style="font-size: 10px; font-family: 'DejaVu Sans'; text-anchor: end" x="521.651717" y="67.303219" transform="rotate(-0 521.651717 67.303219)">35</text>
     </g>
    </g>
    <g id="text_30">
     <text style="font-size: 10px; font-family: 'DejaVu Sans'; text-anchor: middle" x="502.847029" y="174.636" transform="rotate(-90 502.847029 174.636)">Initial states (%)</text>
    </g>
   </g>
   <g id="line2d_27">
    <path d="M 543.109366 273.75373 
L 615.397612 198.664541 
L 687.685858 198.664541 
L 759.974105 123.575351 
L 832.262351 123.575351 
" clip-path="url(#p16b4d98bfe)" style="fill: none; stroke-dasharray: 5.55,2.4; stroke-dashoffset: 0; stroke: #176b86; stroke-width: 1.5"/>
    <defs>
     <path id="mcfdd5af63b" d="M 0 3 
C 0.795609 3 1.55874 2.683901 2.12132 2.12132 
C 2.683901 1.55874 3 0.795609 3 0 
C 3 -0.795609 2.683901 -1.55874 2.12132 -2.12132 
C 1.55874 -2.683901 0.795609 -3 0 -3 
C -0.795609 -3 -1.55874 -2.683901 -2.12132 -2.12132 
C -2.683901 -1.55874 -3 -0.795609 -3 0 
C -3 0.795609 -2.683901 1.55874 -2.12132 2.12132 
C -1.55874 2.683901 -0.795609 3 0 3 
z
" style="stroke: #176b86"/>
    </defs>
    <g clip-path="url(#p16b4d98bfe)">
     <use xlink:href="#mcfdd5af63b" x="543.109366" y="273.75373" style="fill: #176b86; stroke: #176b86"/>
     <use xlink:href="#mcfdd5af63b" x="615.397612" y="198.664541" style="fill: #176b86; stroke: #176b86"/>
     <use xlink:href="#mcfdd5af63b" x="687.685858" y="198.664541" style="fill: #176b86; stroke: #176b86"/>
     <use xlink:href="#mcfdd5af63b" x="759.974105" y="123.575351" style="fill: #176b86; stroke: #176b86"/>
     <use xlink:href="#mcfdd5af63b" x="832.262351" y="123.575351" style="fill: #176b86; stroke: #176b86"/>
    </g>
   </g>
   <g id="line2d_28">
    <path d="M 543.109366 273.75373 
L 615.397612 236.209135 
L 687.685858 198.664541 
L 759.974105 198.664541 
L 832.262351 198.664541 
" clip-path="url(#p16b4d98bfe)" style="fill: none; stroke-dasharray: 5.55,2.4; stroke-dashoffset: 0; stroke: #ac6234; stroke-width: 1.5"/>
    <defs>
     <path id="mc44e4d1a8d" d="M 0 3 
C 0.795609 3 1.55874 2.683901 2.12132 2.12132 
C 2.683901 1.55874 3 0.795609 3 0 
C 3 -0.795609 2.683901 -1.55874 2.12132 -2.12132 
C 1.55874 -2.683901 0.795609 -3 0 -3 
C -0.795609 -3 -1.55874 -2.683901 -2.12132 -2.12132 
C -2.683901 -1.55874 -3 -0.795609 -3 0 
C -3 0.795609 -2.683901 1.55874 -2.12132 2.12132 
C -1.55874 2.683901 -0.795609 3 0 3 
z
" style="stroke: #ac6234"/>
    </defs>
    <g clip-path="url(#p16b4d98bfe)">
     <use xlink:href="#mc44e4d1a8d" x="543.109366" y="273.75373" style="fill: #ac6234; stroke: #ac6234"/>
     <use xlink:href="#mc44e4d1a8d" x="615.397612" y="236.209135" style="fill: #ac6234; stroke: #ac6234"/>
     <use xlink:href="#mc44e4d1a8d" x="687.685858" y="198.664541" style="fill: #ac6234; stroke: #ac6234"/>
     <use xlink:href="#mc44e4d1a8d" x="759.974105" y="198.664541" style="fill: #ac6234; stroke: #ac6234"/>
     <use xlink:href="#mc44e4d1a8d" x="832.262351" y="198.664541" style="fill: #ac6234; stroke: #ac6234"/>
    </g>
   </g>
   <g id="line2d_29">
    <path d="M 543.109366 273.75373 
L 615.397612 198.664541 
L 687.685858 161.119946 
L 759.974105 161.119946 
L 832.262351 142.347649 
" clip-path="url(#p16b4d98bfe)" style="fill: none; stroke: #176b86; stroke-width: 1.5; stroke-linecap: square"/>
    <g clip-path="url(#p16b4d98bfe)">
     <use xlink:href="#mcfdd5af63b" x="543.109366" y="273.75373" style="fill: #176b86; stroke: #176b86"/>
     <use xlink:href="#mcfdd5af63b" x="615.397612" y="198.664541" style="fill: #176b86; stroke: #176b86"/>
     <use xlink:href="#mcfdd5af63b" x="687.685858" y="161.119946" style="fill: #176b86; stroke: #176b86"/>
     <use xlink:href="#mcfdd5af63b" x="759.974105" y="161.119946" style="fill: #176b86; stroke: #176b86"/>
     <use xlink:href="#mcfdd5af63b" x="832.262351" y="142.347649" style="fill: #176b86; stroke: #176b86"/>
    </g>
   </g>
   <g id="line2d_30">
    <path d="M 543.109366 273.75373 
L 615.397612 236.209135 
L 687.685858 198.664541 
L 759.974105 189.278392 
L 832.262351 189.278392 
" clip-path="url(#p16b4d98bfe)" style="fill: none; stroke: #ac6234; stroke-width: 1.5; stroke-linecap: square"/>
    <g clip-path="url(#p16b4d98bfe)">
     <use xlink:href="#mc44e4d1a8d" x="543.109366" y="273.75373" style="fill: #ac6234; stroke: #ac6234"/>
     <use xlink:href="#mc44e4d1a8d" x="615.397612" y="236.209135" style="fill: #ac6234; stroke: #ac6234"/>
     <use xlink:href="#mc44e4d1a8d" x="687.685858" y="198.664541" style="fill: #ac6234; stroke: #ac6234"/>
     <use xlink:href="#mc44e4d1a8d" x="759.974105" y="189.278392" style="fill: #ac6234; stroke: #ac6234"/>
     <use xlink:href="#mc44e4d1a8d" x="832.262351" y="189.278392" style="fill: #ac6234; stroke: #ac6234"/>
    </g>
   </g>
   <g id="patch_15">
    <path d="M 528.651717 285.768 
L 528.651717 63.504 
" style="fill: none; stroke: #000000; stroke-width: 0.8; stroke-linejoin: miter; stroke-linecap: square"/>
   </g>
   <g id="patch_16">
    <path d="M 846.72 285.768 
L 846.72 63.504 
" style="fill: none; stroke: #000000; stroke-width: 0.8; stroke-linejoin: miter; stroke-linecap: square"/>
   </g>
   <g id="patch_17">
    <path d="M 528.651717 285.768 
L 846.72 285.768 
" style="fill: none; stroke: #000000; stroke-width: 0.8; stroke-linejoin: miter; stroke-linecap: square"/>
   </g>
   <g id="patch_18">
    <path d="M 528.651717 63.504 
L 846.72 63.504 
" style="fill: none; stroke: #000000; stroke-width: 0.8; stroke-linejoin: miter; stroke-linecap: square"/>
   </g>
   <g id="text_31">
    <text style="font-size: 11px; font-family: 'DejaVu Sans'; text-anchor: middle" x="687.685858" y="48.504" transform="rotate(-0 687.685858 48.504)">Rule 23 encoding after one physical cell flip</text>
   </g>
   <g id="legend_1">
    <g id="patch_19">
     <path d="M 534.251717 116.874 
L 684.769217 116.874 
Q 686.369217 116.874 686.369217 115.274 
L 686.369217 69.104 
Q 686.369217 67.504 684.769217 67.504 
L 534.251717 67.504 
Q 532.651717 67.504 532.651717 69.104 
L 532.651717 115.274 
Q 532.651717 116.874 534.251717 116.874 
z
" style="fill: #ffffff; opacity: 0.8; stroke: #cccccc; stroke-linejoin: miter"/>
    </g>
    <g id="line2d_31">
     <path d="M 535.851717 73.98275 
L 543.851717 73.98275 
L 551.851717 73.98275 
" style="fill: none; stroke-dasharray: 5.55,2.4; stroke-dashoffset: 0; stroke: #176b86; stroke-width: 1.5"/>
     <g>
      <use xlink:href="#mcfdd5af63b" x="543.851717" y="73.98275" style="fill: #176b86; stroke: #176b86"/>
     </g>
    </g>
    <g id="text_32">
     <text style="font-size: 8px; font-family: 'DejaVu Sans'; text-anchor: start" x="558.251717" y="76.78275" transform="rotate(-0 558.251717 76.78275)">Valid encoding, width 5</text>
    </g>
    <g id="line2d_32">
     <path d="M 535.851717 85.72525 
L 543.851717 85.72525 
L 551.851717 85.72525 
" style="fill: none; stroke-dasharray: 5.55,2.4; stroke-dashoffset: 0; stroke: #ac6234; stroke-width: 1.5"/>
     <g>
      <use xlink:href="#mc44e4d1a8d" x="543.851717" y="85.72525" style="fill: #ac6234; stroke: #ac6234"/>
     </g>
    </g>
    <g id="text_33">
     <text style="font-size: 8px; font-family: 'DejaVu Sans'; text-anchor: start" x="558.251717" y="88.52525" transform="rotate(-0 558.251717 88.52525)">Undamaged trajectory, width 5</text>
    </g>
    <g id="line2d_33">
     <path d="M 535.851717 97.46775 
L 543.851717 97.46775 
L 551.851717 97.46775 
" style="fill: none; stroke: #176b86; stroke-width: 1.5; stroke-linecap: square"/>
     <g>
      <use xlink:href="#mcfdd5af63b" x="543.851717" y="97.46775" style="fill: #176b86; stroke: #176b86"/>
     </g>
    </g>
    <g id="text_34">
     <text style="font-size: 8px; font-family: 'DejaVu Sans'; text-anchor: start" x="558.251717" y="100.26775" transform="rotate(-0 558.251717 100.26775)">Valid encoding, width 7</text>
    </g>
    <g id="line2d_34">
     <path d="M 535.851717 109.21025 
L 543.851717 109.21025 
L 551.851717 109.21025 
" style="fill: none; stroke: #ac6234; stroke-width: 1.5; stroke-linecap: square"/>
     <g>
      <use xlink:href="#mc44e4d1a8d" x="543.851717" y="109.21025" style="fill: #ac6234; stroke: #ac6234"/>
     </g>
    </g>
    <g id="text_35">
     <text style="font-size: 8px; font-family: 'DejaVu Sans'; text-anchor: start" x="558.251717" y="112.01025" transform="rotate(-0 558.251717 112.01025)">Undamaged trajectory, width 7</text>
    </g>
   </g>
  </g>
  <g id="text_36">
   <text style="font-size: 16px; font-family: 'DejaVu Sans'; text-anchor: middle" x="432" y="22.7415" transform="rotate(-0 432 22.7415)">An encoding can survive while its effective neighborhood grows</text>
  </g>
  <g id="text_37">
   <text style="font-size: 9px; font-family: 'DejaVu Sans'; text-anchor: start" x="43.2" y="342.216" transform="rotate(-0 43.2 342.216)">Damage: complete 2×5 and 2×7 tori, fixed row-0/column-0 flip. Matched logical flips change both code cells.</text>
  </g>
 </g>
 <defs>
  <clipPath id="p16b4d98bfe">
   <rect x="528.651717" y="63.504" width="318.068283" height="222.264"/>
  </clipPath>
 </defs>
</svg>
